<svg xmlns="http://www.w3.org/2000/svg" width="1200" height="880" viewBox="0 0 1200 880" fill="none"><rect width="1200" height="880" rx="24" fill="#F6F8FA"/><rect x="50" y="50" width="1100" height="780" rx="20" fill="#FFFFFF" stroke="#DDE5EB"/><rect x="90" y="104" width="300" height="214" rx="16" fill="#102C47"/><rect x="420" y="104" width="300" height="214" rx="16" fill="#173957"/><rect x="750" y="104" width="300" height="214" rx="16" fill="#224967"/><rect x="90" y="348" width="468" height="438" rx="16" fill="#F8FAFB" stroke="#DDE5EB"/><rect x="588" y="348" width="462" height="202" rx="16" fill="#F8FAFB" stroke="#DDE5EB"/><rect x="588" y="584" width="462" height="202" rx="16" fill="#F8FAFB" stroke="#DDE5EB"/><g fill="#FFFFFF" font-family="Arial, sans-serif" font-size="28" font-weight="700"><text x="120" y="160">EV Charging</text><text x="450" y="160">Automation</text><text x="780" y="160">Packaging</text></g><g fill="#18344E" font-family="Arial, sans-serif" font-size="26" font-weight="700"><text x="120" y="408">Cross-supplier execution board</text><text x="618" y="408">Industrial parts</text><text x="618" y="644">Private label</text></g><path d="M126 468H518" stroke="#E0E7ED" stroke-width="8"/><path d="M126 514H518" stroke="#E0E7ED" stroke-width="8"/><path d="M126 560H518" stroke="#E0E7ED" stroke-width="8"/><path d="M126 606H518" stroke="#E0E7ED" stroke-width="8"/><path d="M126 652H518" stroke="#E0E7ED" stroke-width="8"/><path d="M126 698H518" stroke="#E0E7ED" stroke-width="8"/><path d="M620 468H1010" stroke="#E0E7ED" stroke-width="8"/><path d="M620 514H1010" stroke="#E0E7ED" stroke-width="8"/><path d="M620 704H1010" stroke="#E0E7ED" stroke-width="8"/><path d="M620 750H1010" stroke="#E0E7ED" stroke-width="8"/><circle cx="966" cy="158" r="28" fill="#D2B48E"/></svg>