<svg xmlns="http://www.w3.org/2000/svg" width="1200" height="760" viewBox="0 0 1200 760" fill="none"><rect width="1200" height="760" rx="24" fill="#FFFFFF"/><rect x="40" y="40" width="1120" height="680" rx="20" fill="#F6F8FA" stroke="#DCE4EA"/><path d="M140 382H1060" stroke="#D8E0E7" stroke-width="4" stroke-dasharray="10 10"/><g><rect x="98" y="250" width="176" height="250" rx="16" fill="#102C47"/><rect x="316" y="214" width="176" height="286" rx="16" fill="#193B59"/><rect x="534" y="178" width="176" height="322" rx="16" fill="#22496A"/><rect x="752" y="214" width="176" height="286" rx="16" fill="#193B59"/><rect x="970" y="250" width="132" height="250" rx="16" fill="#102C47"/></g><g fill="#FFFFFF" font-family="Arial, sans-serif" font-size="28" font-weight="700"><text x="128" y="290">Define</text><text x="351" y="254">Source</text><text x="560" y="218">Validate</text><text x="789" y="254">Control</text><text x="996" y="290">Deliver</text></g><g fill="#B9C7D4" font-family="Arial, sans-serif" font-size="18"><text x="128" y="352">specification</text><text x="128" y="382">quantity</text><text x="128" y="412">timing</text><text x="351" y="328">clusters</text><text x="351" y="358">RFQ</text><text x="351" y="388">comparison</text><text x="560" y="312">samples</text><text x="560" y="342">qualification</text><text x="560" y="372">risk review</text><text x="789" y="328">PO follow-up</text><text x="789" y="358">quality gate</text><text x="789" y="388">change log</text><text x="996" y="352">documents</text><text x="996" y="382">handoff</text><text x="996" y="412">shipment</text></g><g fill="#D2B48E"><circle cx="186" cy="560" r="18"/><circle cx="404" cy="560" r="18"/><circle cx="622" cy="560" r="18"/><circle cx="840" cy="560" r="18"/><circle cx="1036" cy="560" r="18"/></g></svg>